<mxfile host="app.diagrams.net" modified="2024-05-10T12:00:00.000Z" agent="Mozilla/5.0 (Windows NT 10.0; Win64; x64) AppleWebKit/537.36 (KHTML, like Gecko) Chrome/91.0.4472.124 Safari/537.36" etag="meeting-transcriber-diagram" version="15.8.3" type="device">
  <diagram id="meeting-transcriber-architecture" name="Meeting Transcriber Architecture">
    <mxGraphModel dx="1422" dy="798" grid="1" gridSize="10" guides="1" tooltips="1" connect="1" arrows="1" fold="1" page="1" pageScale="1" pageWidth="1100" pageHeight="850" math="0" shadow="0">
      <root>
        <mxCell id="0" />
        <mxCell id="1" parent="0" />
        
        <!-- Title -->
        <mxCell id="title" value="Meeting Transcriber Architecture" style="text;html=1;strokeColor=none;fillColor=none;align=center;verticalAlign=middle;whiteSpace=wrap;rounded=0;fontSize=24;fontStyle=1" vertex="1" parent="1">
          <mxGeometry x="350" y="20" width="400" height="40" as="geometry" />
        </mxCell>
        
        <!-- User Interface -->
        <mxCell id="ui_container" value="User Interface" style="swimlane;fontStyle=1;align=center;verticalAlign=top;childLayout=stackLayout;horizontal=1;startSize=30;horizontalStack=0;resizeParent=1;resizeParentMax=0;resizeLast=0;collapsible=0;marginBottom=0;html=1;fillColor=#dae8fc;strokeColor=#6c8ebf;" vertex="1" parent="1">
          <mxGeometry x="40" y="100" width="200" height="130" as="geometry" />
        </mxCell>
        <mxCell id="ui_components" value="- GUI Application (PyQt5)&#xa;- File Selection&#xa;- AWS Credentials Input&#xa;- Bedrock Settings&#xa;- Transcription Settings&#xa;- Progress Tracking" style="text;strokeColor=none;fillColor=none;align=left;verticalAlign=top;spacingLeft=4;spacingRight=4;overflow=hidden;rotatable=0;points=[[0,0.5],[1,0.5]];portConstraint=eastwest;" vertex="1" parent="ui_container">
          <mxGeometry y="30" width="200" height="100" as="geometry" />
        </mxCell>
        
        <!-- Core Processing -->
        <mxCell id="core_container" value="Core Processing" style="swimlane;fontStyle=1;align=center;verticalAlign=top;childLayout=stackLayout;horizontal=1;startSize=30;horizontalStack=0;resizeParent=1;resizeParentMax=0;resizeLast=0;collapsible=0;marginBottom=0;html=1;fillColor=#d5e8d4;strokeColor=#82b366;" vertex="1" parent="1">
          <mxGeometry x="350" y="100" width="200" height="130" as="geometry" />
        </mxCell>
        <mxCell id="core_components" value="- Audio File Processing&#xa;- Transcription Worker&#xa;- File I/O Operations&#xa;- Environment Configuration&#xa;- Error Handling&#xa;- Fallback Processing" style="text;strokeColor=none;fillColor=none;align=left;verticalAlign=top;spacingLeft=4;spacingRight=4;overflow=hidden;rotatable=0;points=[[0,0.5],[1,0.5]];portConstraint=eastwest;" vertex="1" parent="core_container">
          <mxGeometry y="30" width="200" height="100" as="geometry" />
        </mxCell>
        
        <!-- AWS Services -->
        <mxCell id="aws_container" value="AWS Services" style="swimlane;fontStyle=1;align=center;verticalAlign=top;childLayout=stackLayout;horizontal=1;startSize=30;horizontalStack=0;resizeParent=1;resizeParentMax=0;resizeLast=0;collapsible=0;marginBottom=0;html=1;fillColor=#ffe6cc;strokeColor=#d79b00;" vertex="1" parent="1">
          <mxGeometry x="660" y="100" width="200" height="130" as="geometry" />
        </mxCell>
        <mxCell id="aws_components" value="- AWS Transcribe&#xa;- AWS S3 Storage&#xa;- AWS Bedrock&#xa;- Claude/Titan Models&#xa;- Authentication&#xa;- API Integration" style="text;strokeColor=none;fillColor=none;align=left;verticalAlign=top;spacingLeft=4;spacingRight=4;overflow=hidden;rotatable=0;points=[[0,0.5],[1,0.5]];portConstraint=eastwest;" vertex="1" parent="aws_container">
          <mxGeometry y="30" width="200" height="100" as="geometry" />
        </mxCell>
        
        <!-- Transcription Module -->
        <mxCell id="transcribe_module" value="AWS Transcribe Module" style="rounded=1;whiteSpace=wrap;html=1;fillColor=#fff2cc;strokeColor=#d6b656;fontStyle=1" vertex="1" parent="1">
          <mxGeometry x="350" y="280" width="200" height="60" as="geometry" />
        </mxCell>
        
        <!-- Summarization Module -->
        <mxCell id="summarize_module" value="Bedrock Summarization Module" style="rounded=1;whiteSpace=wrap;html=1;fillColor=#fff2cc;strokeColor=#d6b656;fontStyle=1" vertex="1" parent="1">
          <mxGeometry x="350" y="380" width="200" height="60" as="geometry" />
        </mxCell>
        
        <!-- Formatting Module -->
        <mxCell id="format_module" value="Notes Formatting Module" style="rounded=1;whiteSpace=wrap;html=1;fillColor=#fff2cc;strokeColor=#d6b656;fontStyle=1" vertex="1" parent="1">
          <mxGeometry x="350" y="480" width="200" height="60" as="geometry" />
        </mxCell>
        
        <!-- Input Files -->
        <mxCell id="input_files" value="Input" style="shape=cylinder3;whiteSpace=wrap;html=1;boundedLbl=1;backgroundOutline=1;size=15;fillColor=#f5f5f5;strokeColor=#666666;fontColor=#333333;fontStyle=1" vertex="1" parent="1">
          <mxGeometry x="110" y="380" width="60" height="80" as="geometry" />
        </mxCell>
        <mxCell id="input_label" value="Audio Files&#xa;(.mp3, .wav, .m4a, .flac, .ogg)" style="text;html=1;strokeColor=none;fillColor=none;align=center;verticalAlign=middle;whiteSpace=wrap;rounded=0;" vertex="1" parent="1">
          <mxGeometry x="70" y="470" width="140" height="30" as="geometry" />
        </mxCell>
        
        <!-- Output Files -->
        <mxCell id="output_files" value="Output" style="shape=cylinder3;whiteSpace=wrap;html=1;boundedLbl=1;backgroundOutline=1;size=15;fillColor=#f5f5f5;strokeColor=#666666;fontColor=#333333;fontStyle=1" vertex="1" parent="1">
          <mxGeometry x="730" y="380" width="60" height="80" as="geometry" />
        </mxCell>
        <mxCell id="output_label" value="Transcript Files (.txt)&#xa;Meeting Notes (.md)" style="text;html=1;strokeColor=none;fillColor=none;align=center;verticalAlign=middle;whiteSpace=wrap;rounded=0;" vertex="1" parent="1">
          <mxGeometry x="690" y="470" width="140" height="30" as="geometry" />
        </mxCell>
        
        <!-- Flow Arrows -->
        <mxCell id="arrow_ui_to_core" value="" style="endArrow=classic;html=1;rounded=0;exitX=1;exitY=0.5;exitDx=0;exitDy=0;entryX=0;entryY=0.5;entryDx=0;entryDy=0;" edge="1" parent="1" source="ui_components" target="core_components">
          <mxGeometry width="50" height="50" relative="1" as="geometry">
            <mxPoint x="250" y="165" as="sourcePoint" />
            <mxPoint x="340" y="165" as="targetPoint" />
          </mxGeometry>
        </mxCell>
        <mxCell id="arrow_core_to_aws" value="" style="endArrow=classic;html=1;rounded=0;exitX=1;exitY=0.5;exitDx=0;exitDy=0;entryX=0;entryY=0.5;entryDx=0;entryDy=0;" edge="1" parent="1" source="core_components" target="aws_components">
          <mxGeometry width="50" height="50" relative="1" as="geometry">
            <mxPoint x="560" y="165" as="sourcePoint" />
            <mxPoint x="650" y="165" as="targetPoint" />
          </mxGeometry>
        </mxCell>
        <mxCell id="arrow_core_to_transcribe" value="" style="endArrow=classic;html=1;rounded=0;exitX=0.5;exitY=1;exitDx=0;exitDy=0;entryX=0.5;entryY=0;entryDx=0;entryDy=0;" edge="1" parent="1" source="core_container" target="transcribe_module">
          <mxGeometry width="50" height="50" relative="1" as="geometry">
            <mxPoint x="450" y="240" as="sourcePoint" />
            <mxPoint x="450" y="270" as="targetPoint" />
          </mxGeometry>
        </mxCell>
        <mxCell id="arrow_transcribe_to_summarize" value="" style="endArrow=classic;html=1;rounded=0;exitX=0.5;exitY=1;exitDx=0;exitDy=0;entryX=0.5;entryY=0;entryDx=0;entryDy=0;" edge="1" parent="1" source="transcribe_module" target="summarize_module">
          <mxGeometry width="50" height="50" relative="1" as="geometry">
            <mxPoint x="450" y="350" as="sourcePoint" />
            <mxPoint x="450" y="380" as="targetPoint" />
          </mxGeometry>
        </mxCell>
        <mxCell id="arrow_summarize_to_format" value="" style="endArrow=classic;html=1;rounded=0;exitX=0.5;exitY=1;exitDx=0;exitDy=0;entryX=0.5;entryY=0;entryDx=0;entryDy=0;" edge="1" parent="1" source="summarize_module" target="format_module">
          <mxGeometry width="50" height="50" relative="1" as="geometry">
            <mxPoint x="450" y="450" as="sourcePoint" />
            <mxPoint x="450" y="480" as="targetPoint" />
          </mxGeometry>
        </mxCell>
        <mxCell id="arrow_input_to_transcribe" value="" style="endArrow=classic;html=1;rounded=0;exitX=1;exitY=0.5;exitDx=0;exitDy=0;entryX=0;entryY=0.5;entryDx=0;entryDy=0;" edge="1" parent="1" source="input_files" target="transcribe_module">
          <mxGeometry width="50" height="50" relative="1" as="geometry">
            <mxPoint x="180" y="420" as="sourcePoint" />
            <mxPoint x="340" y="310" as="targetPoint" />
            <Array as="points">
              <mxPoint x="220" y="420" />
              <mxPoint x="220" y="310" />
            </Array>
          </mxGeometry>
        </mxCell>
        <mxCell id="arrow_format_to_output" value="" style="endArrow=classic;html=1;rounded=0;exitX=1;exitY=0.5;exitDx=0;exitDy=0;entryX=0;entryY=0.5;entryDx=0;entryDy=0;" edge="1" parent="1" source="format_module" target="output_files">
          <mxGeometry width="50" height="50" relative="1" as="geometry">
            <mxPoint x="560" y="510" as="sourcePoint" />
            <mxPoint x="720" y="420" as="targetPoint" />
            <Array as="points">
              <mxPoint x="640" y="510" />
              <mxPoint x="640" y="420" />
            </Array>
          </mxGeometry>
        </mxCell>
        <mxCell id="arrow_aws_to_transcribe" value="" style="endArrow=classic;html=1;rounded=0;exitX=0.5;exitY=1;exitDx=0;exitDy=0;entryX=1;entryY=0.5;entryDx=0;entryDy=0;" edge="1" parent="1" source="aws_container" target="transcribe_module">
          <mxGeometry width="50" height="50" relative="1" as="geometry">
            <mxPoint x="760" y="240" as="sourcePoint" />
            <mxPoint x="560" y="310" as="targetPoint" />
            <Array as="points">
              <mxPoint x="760" y="310" />
            </Array>
          </mxGeometry>
        </mxCell>
        <mxCell id="arrow_aws_to_summarize" value="" style="endArrow=classic;html=1;rounded=0;entryX=1;entryY=0.5;entryDx=0;entryDy=0;" edge="1" parent="1" target="summarize_module">
          <mxGeometry width="50" height="50" relative="1" as="geometry">
            <mxPoint x="760" y="310" as="sourcePoint" />
            <mxPoint x="560" y="410" as="targetPoint" />
            <Array as="points">
              <mxPoint x="760" y="410" />
            </Array>
          </mxGeometry>
        </mxCell>
        
        <!-- Data Flow Labels -->
        <mxCell id="label_ui_to_core" value="User Input" style="text;html=1;strokeColor=none;fillColor=none;align=center;verticalAlign=middle;whiteSpace=wrap;rounded=0;" vertex="1" parent="1">
          <mxGeometry x="260" y="140" width="70" height="20" as="geometry" />
        </mxCell>
        <mxCell id="label_core_to_aws" value="API Calls" style="text;html=1;strokeColor=none;fillColor=none;align=center;verticalAlign=middle;whiteSpace=wrap;rounded=0;" vertex="1" parent="1">
          <mxGeometry x="570" y="140" width="70" height="20" as="geometry" />
        </mxCell>
        <mxCell id="label_input_to_transcribe" value="Audio Files" style="text;html=1;strokeColor=none;fillColor=none;align=center;verticalAlign=middle;whiteSpace=wrap;rounded=0;" vertex="1" parent="1">
          <mxGeometry x="220" y="350" width="70" height="20" as="geometry" />
        </mxCell>
        <mxCell id="label_transcribe_to_summarize" value="Transcript" style="text;html=1;strokeColor=none;fillColor=none;align=center;verticalAlign=middle;whiteSpace=wrap;rounded=0;" vertex="1" parent="1">
          <mxGeometry x="450" y="350" width="70" height="20" as="geometry" />
        </mxCell>
        <mxCell id="label_summarize_to_format" value="Summary Data" style="text;html=1;strokeColor=none;fillColor=none;align=center;verticalAlign=middle;whiteSpace=wrap;rounded=0;" vertex="1" parent="1">
          <mxGeometry x="450" y="450" width="80" height="20" as="geometry" />
        </mxCell>
        <mxCell id="label_format_to_output" value="Formatted Notes" style="text;html=1;strokeColor=none;fillColor=none;align=center;verticalAlign=middle;whiteSpace=wrap;rounded=0;" vertex="1" parent="1">
          <mxGeometry x="640" y="450" width="90" height="20" as="geometry" />
        </mxCell>
        <mxCell id="label_aws_to_transcribe" value="Transcription Service" style="text;html=1;strokeColor=none;fillColor=none;align=center;verticalAlign=middle;whiteSpace=wrap;rounded=0;" vertex="1" parent="1">
          <mxGeometry x="630" y="280" width="120" height="20" as="geometry" />
        </mxCell>
        <mxCell id="label_aws_to_summarize" value="AI Summarization" style="text;html=1;strokeColor=none;fillColor=none;align=center;verticalAlign=middle;whiteSpace=wrap;rounded=0;" vertex="1" parent="1">
          <mxGeometry x="630" y="380" width="100" height="20" as="geometry" />
        </mxCell>
        
        <!-- Main Components -->
        <mxCell id="main_components" value="Main Components" style="swimlane;fontStyle=1;align=center;verticalAlign=top;childLayout=stackLayout;horizontal=1;startSize=30;horizontalStack=0;resizeParent=1;resizeParentMax=0;resizeLast=0;collapsible=0;marginBottom=0;html=1;fillColor=#e1d5e7;strokeColor=#9673a6;" vertex="1" parent="1">
          <mxGeometry x="40" y="580" width="820" height="130" as="geometry" />
        </mxCell>
        <mxCell id="main_files" value="main.py: Main CLI application entry point&#xa;meeting_transcriber_gui.py: GUI application with PyQt5&#xa;aws_transcribe.py: AWS Transcribe integration for speech-to-text&#xa;summarizer_bedrock.py: AWS Bedrock integration for AI-powered meeting summarization&#xa;format_meeting_notes.py: Formats transcripts and summaries into structured meeting notes&#xa;splash_screen.py: Splash screen for the GUI application&#xa;utils.py: Utility functions shared across modules" style="text;strokeColor=none;fillColor=none;align=left;verticalAlign=top;spacingLeft=4;spacingRight=4;overflow=hidden;rotatable=0;points=[[0,0.5],[1,0.5]];portConstraint=eastwest;" vertex="1" parent="main_components">
          <mxGeometry y="30" width="820" height="100" as="geometry" />
        </mxCell>
        
        <!-- Workflow Description -->
        <mxCell id="workflow_title" value="Application Workflow" style="text;html=1;strokeColor=none;fillColor=none;align=center;verticalAlign=middle;whiteSpace=wrap;rounded=0;fontSize=16;fontStyle=1" vertex="1" parent="1">
          <mxGeometry x="40" y="730" width="160" height="30" as="geometry" />
        </mxCell>
        <mxCell id="workflow_description" value="1. User selects audio file and configures AWS settings through GUI or CLI&#xa;2. Audio file is uploaded to S3 bucket&#xa;3. AWS Transcribe processes audio and generates transcript with speaker diarization&#xa;4. AWS Bedrock (Claude/Titan) analyzes transcript and generates structured meeting notes&#xa;5. Notes are formatted with summary, key takeaways, action items, and decisions&#xa;6. Final transcript and meeting notes are saved to the output directory" style="text;html=1;strokeColor=none;fillColor=none;align=left;verticalAlign=top;whiteSpace=wrap;rounded=0;" vertex="1" parent="1">
          <mxGeometry x="40" y="760" width="820" height="80" as="geometry" />
        </mxCell>
      </root>
    </mxGraphModel>
  </diagram>
</mxfile>